<svg xmlns="http://www.w3.org/2000/svg" xmlns:xlink="http://www.w3.org/1999/xlink" xmlns:inkscape="http://www.inkscape.org/namespaces/inkscape" version="1.1" width="1500" height="1500" viewBox="0 0 1500 1500">
<defs>
<clipPath id="clip_1">
<path transform="matrix(.24,0,0,.24,0,0)" d="M0 0H6250V6250H0Z" clip-rule="evenodd"/>
</clipPath>
<clipPath id="clip_2">
<path transform="matrix(.24,0,0,.24,0,0)" d="M0 0H6250V6250H0Z" clip-rule="evenodd"/>
</clipPath>
<clipPath id="clip_3">
<path transform="matrix(.24,0,0,.24,0,0)" d="M0 0H6250V6250H0Z"/>
</clipPath>
<clipPath id="clip_4">
<path transform="matrix(.24,0,0,.24,0,0)" d="M0 0H6250V6250H0Z"/>
</clipPath>
<clipPath id="clip_5">
<path transform="matrix(.24,0,0,.24,0,0)" d="M962.47488 517.7257H5283.302V3761.5137H962.47488Z"/>
</clipPath>
<clipPath id="clip_6">
<path transform="matrix(.24,0,0,.24,0,0)" d="M2071.8626 3761.5137H4178.1379C4194.9338 3761.5137 4209.8459 3750.766 4215.1564 3734.8316L5278.632 544.4074C5280.6916 538.2257 5279.6555 531.4303 5275.8459 526.14419 5272.035 520.85806 5265.916 517.7257 5259.4006 517.7257H990.59988C984.08377 517.7257 977.9649 520.85806 974.1549 526.14419 970.34487 531.4303 969.30819 538.2257 971.3688 544.4074L2034.8435 3734.8316C2040.1549 3750.766 2055.0665 3761.5137 2071.8626 3761.5137Z"/>
</clipPath>
<clipPath id="clip_7">
<path transform="matrix(.24,0,0,.24,232.56,124.079998)" d="M0 0H4312V3245H0Z"/>
</clipPath>
<clipPath id="clip_8">
<path transform="matrix(.24,0,0,.24,0,0)" d="M0 0H6250V6250H0Z"/>
</clipPath>
<clipPath id="clip_9">
<path transform="matrix(.24,0,0,.24,0,0)" d="M0 0H6250V6250H0Z"/>
</clipPath>
<clipPath id="clip_10">
<path transform="matrix(.24,0,0,.24,0,0)" d="M962.47488 1503.1061H5283.302V4746.894H962.47488Z"/>
</clipPath>
<clipPath id="clip_11">
<path transform="matrix(.24,0,0,.24,0,0)" d="M2071.8626 4746.894H4178.1379C4194.9338 4746.894 4209.8459 4736.1467 4215.1564 4720.212L5278.632 1529.7879C5280.6916 1523.6061 5279.6555 1516.8107 5275.8459 1511.5245 5272.035 1506.2384 5265.916 1503.1061 5259.4006 1503.1061H990.59988C984.08377 1503.1061 977.9649 1506.2384 974.1549 1511.5245 970.34487 1516.8107 969.30819 1523.6061 971.3688 1529.7879L2034.8435 4720.212C2040.1549 4736.1467 2055.0665 4746.894 2071.8626 4746.894Z"/>
</clipPath>
<clipPath id="clip_12">
<path transform="matrix(.24,0,0,.24,232.56,360.72)" d="M0 0H4312V3244H0Z"/>
</clipPath>
<clipPath id="clip_13">
<path transform="matrix(.24,0,0,.24,0,0)" d="M0 0H6250V6250H0Z"/>
</clipPath>
<clipPath id="clip_14">
<path transform="matrix(.24,0,0,.24,0,0)" d="M0 0H6250V6250H0Z"/>
</clipPath>
<clipPath id="clip_15">
<path transform="matrix(.24,0,0,.24,0,0)" d="M962.47488 2488.4866H5283.302V5732.2746H962.47488Z"/>
</clipPath>
<clipPath id="clip_16">
<path transform="matrix(.24,0,0,.24,0,0)" d="M2071.8626 5732.2746H4178.1379C4194.9338 5732.2746 4209.8459 5721.527 4215.1564 5705.593L5278.632 2515.1683C5280.6916 2508.9866 5279.6555 2502.1912 5275.8459 2496.905 5272.035 2491.619 5265.916 2488.4866 5259.4006 2488.4866H990.59988C984.08377 2488.4866 977.9649 2491.619 974.1549 2496.905 970.34487 2502.1912 969.30819 2508.9866 971.3688 2515.1683L2034.8435 5705.593C2040.1549 5721.527 2055.0665 5732.2746 2071.8626 5732.2746Z"/>
</clipPath>
<clipPath id="clip_17">
<path transform="matrix(.24,0,0,.24,232.56,597.12)" d="M0 0H4312V3245H0Z"/>
</clipPath>
</defs>
<g>
<g clip-path="url(#clip_1)">

</g>
<g clip-path="url(#clip_2)">

</g>
<g clip-path="url(#clip_3)">
<g clip-path="url(#clip_4)">
<g clip-path="url(#clip_5)">
<g clip-path="url(#clip_6)">
<g>
<g clip-path="url(#clip_7)">
<path transform="matrix(3.0410512,0,0,3.0410512,230.99396,124.254169)" d="M0 0H341V256H0Z" fill="#283679"/>
</g>
</g>
</g>
</g>
</g>
</g>
<g clip-path="url(#clip_8)">
<g clip-path="url(#clip_9)">
<g clip-path="url(#clip_10)">
<g clip-path="url(#clip_11)">
<g>
<g clip-path="url(#clip_12)">
<path transform="matrix(3.0410512,0,0,3.0410512,230.99396,360.74546)" d="M0 0H341V256H0Z" fill="#2f87c8"/>
</g>
</g>
</g>
</g>
</g>
</g>
<g clip-path="url(#clip_13)">
<g clip-path="url(#clip_14)">
<g clip-path="url(#clip_15)">
<g clip-path="url(#clip_16)">
<g>
<g clip-path="url(#clip_17)">
<path transform="matrix(3.0410512,0,0,3.0410512,230.99396,597.23678)" d="M0 0H341V256H0Z" fill="#26b7bd"/>
</g>
</g>
</g>
</g>
</g>
</g>
<path transform="matrix(1,0,0,-1,0,1507.9199)" d="M230.99396 605.15676H1269.0061V1383.6658H230.99396Z" fill-opacity="0"/>
<path transform="matrix(1,0,0,-1,0,1507.9199)" d="M230.99396 368.66545H1269.0061V1147.1744H230.99396Z" fill-opacity="0"/>
<path transform="matrix(1,0,0,-1,0,1507.9199)" d="M230.99396 132.17414H1269.0061V910.68319H230.99396Z" fill-opacity="0"/>
</g>
</svg>
